<svg width="60" height="60" viewBox="0 0 60 60" fill="none" xmlns="http://www.w3.org/2000/svg">
    <g clip-path="url(#clip0_17_10)">
        <path
            d="M3.5725 13.6025C4.97051 15.4908 6.57737 17.215 8.3625 18.7425C8.39 18.77 8.4175 18.77 8.4175 18.7975C9.5475 19.765 11.7 21.165 13.26 21.73C13.26 21.73 22.975 25.47 23.4875 25.685C23.679 25.765 23.8773 25.8277 24.08 25.8725C24.5296 25.9561 24.9941 25.8589 25.3724 25.6018C25.7507 25.3448 26.0122 24.9488 26.1 24.5C26.1275 24.3375 26.155 24.07 26.155 23.88V12.9025C26.1825 11.235 25.6425 8.70501 25.16 7.30501C25.16 7.27751 25.1325 7.25001 25.1325 7.22501C24.3603 5.00333 23.329 2.88037 22.06 0.900007L21.9525 0.712507C21.6845 0.346573 21.2844 0.0995509 20.8372 0.0239256C20.39 -0.0516997 19.9309 0.0500327 19.5575 0.307507C19.4225 0.387507 19.3425 0.495007 19.235 0.605007L19.02 0.900007C17.3011 3.38866 16.5981 6.44012 17.055 9.43001C16.3884 9.78002 15.7416 10.1664 15.1175 10.5875C15.01 10.6675 14.0675 11.315 13.3425 11.9875C10.7121 10.4988 7.61694 10.0569 4.675 10.75C4.5675 10.7775 4.4325 10.8025 4.325 10.83C4.19 10.885 4.0575 10.9375 3.9475 11.02C3.57167 11.2783 3.31114 11.6727 3.22108 12.1198C3.13102 12.5668 3.2185 13.0313 3.465 13.415L3.5725 13.6025ZM20.555 2.67501C21.47 4.21001 22.25 5.79751 22.8675 7.46751C21.63 7.68251 20.4175 8.00501 19.235 8.43751C19.071 6.42657 19.532 4.41405 20.555 2.67501ZM11.645 13.6575C10.8001 14.5929 10.0521 15.6114 9.4125 16.6975C8.08646 15.5189 6.8706 14.2218 5.78 12.8225C7.7741 12.473 9.82768 12.7653 11.645 13.6575ZM44.265 12.9025C42.3832 12.2029 40.4033 11.803 38.3975 11.7175C35.0977 11.5574 31.8134 12.2623 28.87 13.7625L28.3325 14.0325V23.8275C28.3325 23.9625 28.3325 24.4725 28.2525 24.905C28.06 25.9034 27.4791 26.7845 26.6375 27.355C25.7967 27.9332 24.7614 28.1552 23.7575 27.9725C23.4092 27.9021 23.0673 27.8034 22.735 27.6775C19.8973 26.5903 17.0623 25.4961 14.23 24.395C13.963 24.2823 13.6937 24.1747 13.4225 24.0725C9.96077 26.9773 6.76326 30.1832 3.8675 33.6525L3.68 33.8675C3.5007 34.1231 3.39328 34.4222 3.36894 34.7335C3.34461 35.0448 3.40424 35.3569 3.54163 35.6373C3.67902 35.9177 3.88913 36.1561 4.15004 36.3276C4.41095 36.4992 4.71311 36.5975 5.025 36.6125C5.39798 36.6329 5.76722 36.5292 6.075 36.3175C6.1025 36.29 6.13 36.2625 6.1825 36.2375C9.465 33.87 13.0725 31.9575 16.8925 30.425C17.2236 30.2545 17.6004 30.1941 17.9682 30.2526C18.336 30.311 18.6756 30.4853 18.9375 30.75C19.2294 31.0524 19.4035 31.4492 19.4283 31.8688C19.453 32.2883 19.3268 32.7029 19.0725 33.0375L18.48 34.0075C16.4235 37.3912 14.7706 41.0041 13.555 44.7725L13.475 45.095C13.4185 45.3253 13.4134 45.5651 13.4601 45.7976C13.5068 46.0301 13.604 46.2494 13.745 46.44C13.9014 46.6616 14.1064 46.8446 14.3442 46.975C14.5821 47.1054 14.8465 47.1798 15.1175 47.1925C15.4909 47.2166 15.8613 47.1126 16.1675 46.8975C16.3025 46.79 16.4375 46.6825 16.545 46.5475L16.6525 46.385C17.9894 44.4851 19.4642 42.6861 21.065 41.0025C28.2647 33.2843 37.7064 28.0217 48.0575 25.9575C48.1375 25.93 48.22 25.93 48.3 25.93C48.8925 25.9575 49.35 26.4675 49.3225 27.06C49.3121 27.2985 49.2215 27.5264 49.0655 27.707C48.9094 27.8876 48.6969 28.0102 48.4625 28.055C38.6925 30.1275 21.0925 41.7275 27.255 58.575C27.3625 58.845 27.4425 59.005 27.5775 59.2475C27.7307 59.466 27.9312 59.6471 28.1641 59.7774C28.3969 59.9076 28.6562 59.9837 28.9225 60C29.261 59.9998 29.593 59.907 29.8825 59.7316C30.172 59.5562 30.4081 59.3049 30.565 59.005C31.56 57.12 33.445 55.0225 38.88 52.7625C54.0325 46.4925 56.535 37.53 56.805 31.8525V31.53C56.9207 27.5047 55.7737 23.5441 53.5248 20.2035C51.276 16.863 48.038 14.31 44.265 12.9025ZM29.0575 57.3075C27.6575 53.135 27.7925 49.1 29.435 45.25C32.585 50.3375 38.075 50.7675 38.075 50.7675C32.45 53.11 30.2425 55.425 29.0575 57.3075Z"
            fill="#E75E45" />
    </g>
    <defs>
        <clipPath id="clip0_17_10">
            <rect width="60" height="60" fill="white" />
        </clipPath>
    </defs>
</svg>